<svg xmlns="http://www.w3.org/2000/svg" width="606.7" height="606.7" viewBox="0 0 455 455"><path d="M168 39q-44 5-81 31c-12 8-30 26-38 38-8 11-20 34-24 47a213 213 0 0 0 47 206q62 64 155 62 55-3 103-32c18-11 40-31 54-48 31-39 52-94 54-146l2-16v-6H250l-1-6q-7-18-19-27l-2-2 6-19 7-19 7 3c8 4 24 20 29 28l4 6h24v-5c-5-33-30-66-63-82-20-11-49-16-74-13m45 53 8 2-5 19-7 19h-7q-17 0-32 10l-4 2-15-12-17-12c-1 0 8-8 16-13q29-19 63-15m-70 60q13 8 10 10l-2 8q-3 15 1 28l1 5-34 23-9-24-1-20c0-15 2-25 8-38l4-8 5 4zm65 6c14 4 22 22 16 35-8 18-31 21-44 7-11-14-6-35 11-42q8-4 17 0m82 42q-6 28-28 50c-8 7-19 15-20 14l-7-20-6-19 5-4q9-9 14-21l1-5h42zm-119 24q13 10 30 9h10l5 18 6 20c0 2-14 3-26 3a87 87 0 0 1-64-30l32-24z"/></svg>